<svg id="svg" version="1.1" xmlns="http://www.w3.org/2000/svg" xmlns:xlink="http://www.w3.org/1999/xlink" width="400" height="400" viewBox="0, 0, 400,400"><g id="svgg"><path id="path0" d="M187.800 109.500 C 187.800 214.735,187.771 219.093,187.063 221.388 C 185.702 225.799,182.481 230.736,178.300 234.818 C 177.255 235.838,176.400 236.878,176.400 237.129 C 176.400 237.380,175.950 237.698,175.400 237.836 L 174.400 238.087 174.400 284.377 C 174.400 330.401,174.372 331.607,173.328 330.740 C 172.720 330.236,172.904 330.927,173.876 332.800 C 174.162 333.350,174.396 334.031,174.398 334.314 C 174.399 334.597,174.685 335.263,175.033 335.794 C 175.381 336.326,175.557 337.104,175.424 337.524 C 175.281 337.975,175.431 338.494,175.791 338.793 C 176.126 339.071,176.400 339.621,176.400 340.016 C 176.400 340.410,176.542 340.793,176.716 340.867 C 178.015 341.414,180.475 347.711,181.222 352.400 C 181.584 354.673,182.213 356.369,183.819 359.400 C 187.768 366.855,187.800 367.055,187.800 384.700 L 187.800 399.999 293.902 400.000 L 400.005 400.000 399.902 368.707 L 399.800 337.414 398.200 337.130 C 397.320 336.974,361.095 336.836,317.700 336.823 L 238.800 336.800 238.800 294.000 L 238.800 251.200 317.544 251.200 C 360.853 251.200,397.124 251.085,398.146 250.945 L 400.003 250.691 399.902 206.652 L 399.800 162.614 398.200 162.330 C 397.320 162.174,361.095 162.036,317.700 162.023 L 238.800 162.000 238.800 113.000 L 238.800 64.000 317.700 63.977 C 361.095 63.964,397.320 63.826,398.200 63.670 L 399.800 63.386 399.902 31.693 L 400.005 0.000 293.902 0.000 L 187.800 0.000 187.800 109.500 M108.000 265.725 C 108.000 265.794,108.585 266.379,109.300 267.025 L 110.600 268.200 109.425 266.900 C 108.330 265.688,108.000 265.416,108.000 265.725 M121.234 279.047 C 121.765 279.733,122.280 280.223,122.379 280.135 C 122.477 280.047,122.043 279.486,121.413 278.888 L 120.269 277.800 121.234 279.047 M133.634 291.447 C 134.165 292.133,134.680 292.623,134.779 292.535 C 134.877 292.447,134.443 291.886,133.813 291.288 L 132.669 290.200 133.634 291.447 M158.000 315.725 C 158.000 315.794,158.585 316.379,159.300 317.025 L 160.600 318.200 159.425 316.900 C 158.330 315.688,158.000 315.416,158.000 315.725 M171.234 329.047 C 171.765 329.733,172.280 330.223,172.379 330.135 C 172.477 330.047,172.043 329.486,171.413 328.888 L 170.269 327.800 171.234 329.047 M90.800 358.264 C 90.800 358.482,91.295 359.097,91.900 359.630 L 93.000 360.600 92.000 359.400 C 91.450 358.740,90.955 358.125,90.900 358.033 C 90.845 357.942,90.800 358.045,90.800 358.264 " stroke="none" fill="#0c4cdc" fill-rule="evenodd"></path><path id="path1" d="M0.000 200.000 L 0.000 400.000 25.600 400.000 L 51.200 400.000 51.200 359.667 C 51.200 337.483,51.311 319.223,51.446 319.087 C 51.582 318.952,52.618 319.781,53.749 320.931 C 55.774 322.988,58.546 324.609,60.814 325.063 C 62.159 325.332,62.772 326.163,64.177 329.621 C 64.741 331.008,65.516 332.468,65.901 332.867 C 68.140 335.188,68.729 335.666,70.189 336.348 C 71.075 336.762,72.405 337.232,73.145 337.392 C 74.363 337.656,74.639 338.006,76.063 341.087 C 78.576 346.527,81.258 349.005,85.549 349.853 C 86.744 350.089,87.033 350.421,88.086 352.760 C 88.739 354.212,89.480 355.850,89.734 356.400 C 90.919 358.973,94.015 361.335,97.802 362.555 C 99.281 363.031,99.929 363.487,100.282 364.300 C 100.545 364.905,101.127 366.263,101.574 367.318 C 103.209 371.175,105.572 373.306,109.792 374.731 C 112.340 375.591,112.704 375.995,114.162 379.583 C 114.734 380.991,115.516 382.468,115.901 382.867 C 118.140 385.188,118.729 385.666,120.189 386.348 C 121.075 386.762,122.405 387.232,123.145 387.392 C 124.363 387.656,124.639 388.006,126.063 391.087 C 128.104 395.506,129.535 397.234,132.324 398.647 L 134.600 399.800 161.080 399.908 L 187.561 400.017 187.819 398.639 C 187.961 397.881,188.001 390.903,187.907 383.131 C 187.711 366.901,187.676 366.694,183.816 359.400 C 182.214 356.373,181.584 354.670,181.222 352.400 C 180.475 347.711,178.015 341.414,176.716 340.867 C 176.542 340.793,176.400 340.410,176.400 340.016 C 176.400 339.621,176.126 339.071,175.791 338.793 C 175.431 338.494,175.281 337.975,175.424 337.524 C 175.557 337.104,175.381 336.326,175.033 335.794 C 174.685 335.263,174.394 334.597,174.386 334.314 C 174.310 331.423,169.923 327.208,165.703 325.972 C 163.838 325.426,163.210 324.610,161.628 320.685 C 160.316 317.430,157.258 314.742,153.724 313.739 C 150.973 312.959,150.165 312.073,149.434 309.039 C 148.590 305.535,144.714 302.038,140.336 300.830 C 138.579 300.346,138.410 300.175,137.401 297.858 C 136.812 296.506,136.087 294.860,135.789 294.200 C 134.872 292.163,131.533 289.490,128.742 288.558 C 126.046 287.657,125.781 287.346,123.831 282.795 C 122.459 279.592,119.457 277.072,115.703 275.972 C 113.838 275.426,113.210 274.610,111.628 270.685 C 110.316 267.430,107.258 264.742,103.724 263.739 C 100.973 262.959,100.165 262.073,99.434 259.039 C 98.563 255.423,94.105 251.552,89.745 250.623 C 88.674 250.395,88.331 249.993,87.410 247.878 C 85.469 243.423,85.197 242.866,84.896 242.732 C 84.733 242.659,84.115 241.950,83.521 241.155 L 82.442 239.709 83.440 239.255 C 84.166 238.924,96.686 238.800,129.419 238.800 C 155.493 238.800,174.400 238.650,174.400 238.443 C 174.400 238.247,174.850 237.974,175.400 237.836 C 175.950 237.698,176.400 237.380,176.400 237.129 C 176.400 236.878,177.255 235.838,178.300 234.818 C 182.329 230.884,185.571 225.990,187.056 221.600 C 187.797 219.410,188.518 5.299,187.798 1.300 L 187.564 -0.000 93.782 -0.000 L 0.000 0.000 0.000 200.000 M136.800 119.200 L 136.800 174.400 94.000 174.400 L 51.200 174.400 51.200 119.200 L 51.200 64.000 94.000 64.000 L 136.800 64.000 136.800 119.200 " stroke="none" fill="#dc7c0c" fill-rule="evenodd"></path></g></svg>